<?xml version="1.0" encoding="UTF-8"?>
<svg width="149px" height="92px" viewBox="0 0 149 92" version="1.1" xmlns="http://www.w3.org/2000/svg" xmlns:xlink="http://www.w3.org/1999/xlink">
    <title>logo-light</title>
    <g id="Page-1" stroke="none" stroke-width="1" fill="none" fill-rule="evenodd">
        <g id="logo-light" fill="#FFFFFF" fill-rule="nonzero">
            <path d="M108.0186,81.9542 C108.5816,81.9542 109.1016,82.0492 109.5756,82.2402 C110.0446,82.4332 110.4236,82.6922 110.7036,83.0152 L110.1046,83.5502 C109.8576,83.2792 109.5596,83.0762 109.2086,82.9442 C108.8586,82.8112 108.4806,82.7472 108.0716,82.7472 C107.8156,82.7472 107.5636,82.7712 107.3186,82.8242 C107.0686,82.8732 106.8536,82.9502 106.6646,83.0522 C106.4786,83.1562 106.3286,83.2892 106.2106,83.4482 C106.0966,83.6112 106.0396,83.8082 106.0396,84.0362 C106.0396,84.2942 106.1126,84.5092 106.2566,84.6872 C106.4016,84.8692 106.5886,85.0262 106.8196,85.1612 C107.0506,85.2992 107.3116,85.4172 107.6036,85.5212 C107.8996,85.6222 108.2006,85.7242 108.5046,85.8252 C108.8126,85.9302 109.1106,86.0342 109.3936,86.1442 C109.6796,86.2562 109.9346,86.3852 110.1566,86.5292 C110.4886,86.7512 110.7586,87.0182 110.9736,87.3352 C111.1866,87.6522 111.2936,88.0632 111.2936,88.5742 C111.2936,89.0352 111.1956,89.4202 110.9976,89.7302 C110.8016,90.0452 110.5466,90.2932 110.2336,90.4802 C109.9156,90.6692 109.5656,90.8012 109.1846,90.8742 C108.7996,90.9512 108.4216,90.9912 108.0456,90.9912 C107.7296,90.9912 107.4106,90.9702 107.0876,90.9272 C106.7636,90.8842 106.4546,90.8192 106.1556,90.7302 C105.8576,90.6412 105.5746,90.5202 105.3096,90.3702 C105.0456,90.2232 104.8146,90.0412 104.6216,89.8292 L105.1676,89.2542 C105.4846,89.5772 105.8976,89.8192 106.4046,89.9802 C106.9126,90.1422 107.4316,90.2232 107.9696,90.2232 C108.7686,90.2232 109.3896,90.0752 109.8306,89.7772 C110.2666,89.4782 110.4886,89.0722 110.4886,88.5622 C110.4886,88.2552 110.4046,87.9902 110.2386,87.7632 C110.0736,87.5382 109.8646,87.3382 109.6176,87.1692 C109.3536,86.9812 109.0856,86.8402 108.8126,86.7412 C108.5406,86.6422 108.2646,86.5542 107.9886,86.4762 C107.7116,86.4032 107.4316,86.3102 107.1456,86.2092 C106.8606,86.1082 106.5706,85.9572 106.2816,85.7642 C105.9926,85.5672 105.7516,85.3332 105.5656,85.0592 C105.3776,84.7862 105.2856,84.4442 105.2856,84.0362 C105.2856,83.7222 105.3496,83.4332 105.4826,83.1752 C105.6146,82.9132 105.8016,82.6952 106.0396,82.5162 C106.2786,82.3392 106.5636,82.2002 106.9026,82.1012 C107.2386,82.0032 107.6106,81.9542 108.0186,81.9542 L108.0186,81.9542 Z M97.4986,82.6702 C96.5946,82.6702 95.8876,82.9842 95.3776,83.6142 C94.8636,84.2442 94.6086,85.2012 94.6086,86.4762 C94.6086,87.7412 94.8706,88.6912 95.3896,89.3272 C95.9096,89.9682 96.6106,90.2872 97.4986,90.2872 C98.3846,90.2872 99.0886,89.9682 99.6096,89.3272 C100.1286,88.6912 100.3866,87.7412 100.3866,86.4762 C100.3866,85.2012 100.1316,84.2442 99.6216,83.6142 C99.1076,82.9842 98.3996,82.6702 97.4986,82.6702 L97.4986,82.6702 Z M97.4986,81.8522 C98.0346,81.8522 98.5326,81.9472 98.9886,82.1442 C99.4436,82.3412 99.8366,82.6362 100.1626,83.0272 C100.4916,83.4212 100.7466,83.9032 100.9306,84.4782 C101.1126,85.0542 101.2056,85.7212 101.2056,86.4762 C101.2056,87.2362 101.1126,87.9042 100.9306,88.4782 C100.7466,89.0552 100.4916,89.5332 100.1626,89.9182 C99.8366,90.3002 99.4436,90.5922 98.9886,90.7852 C98.5326,90.9822 98.0346,91.0802 97.4986,91.0802 C96.9606,91.0802 96.4656,90.9822 96.0076,90.7852 C95.5526,90.5922 95.1626,90.3002 94.8326,89.9182 C94.5036,89.5332 94.2486,89.0552 94.0676,88.4782 C93.8826,87.9042 93.7906,87.2362 93.7906,86.4762 C93.7906,85.7212 93.8826,85.0542 94.0676,84.4782 C94.2486,83.9032 94.5036,83.4212 94.8326,83.0272 C95.1626,82.6362 95.5526,82.3412 96.0076,82.1442 C96.4656,81.9472 96.9606,81.8522 97.4986,81.8522 L97.4986,81.8522 Z M88.8186,89.6352 L88.8186,82.0432 L89.6366,82.0432 L89.6366,90.8902 L88.6366,90.8902 L84.0616,83.2942 L84.0616,90.8902 L83.2556,90.8902 L83.2556,82.0432 L84.2516,82.0432 L88.8186,89.6352 Z M76.0326,86.7352 L79.1506,86.7352 L79.1506,87.7192 C79.1506,88.1622 79.0796,88.5872 78.9356,88.9892 C78.7876,89.3952 78.5756,89.7522 78.2946,90.0652 C78.0126,90.3762 77.6656,90.6222 77.2476,90.8072 C76.8296,90.9882 76.3466,91.0802 75.8016,91.0802 C75.2666,91.0802 74.7656,90.9822 74.3006,90.7852 C73.8366,90.5922 73.4346,90.3002 73.0986,89.9182 C72.7606,89.5332 72.4986,89.0552 72.3056,88.4782 C72.1156,87.9042 72.0196,87.2362 72.0196,86.4762 C72.0196,85.7212 72.1156,85.0542 72.3056,84.4782 C72.4986,83.9032 72.7606,83.4212 73.0986,83.0272 C73.4346,82.6362 73.8366,82.3412 74.3006,82.1442 C74.7656,81.9472 75.2706,81.8522 75.8146,81.8522 C76.4116,81.8522 76.9556,81.9702 77.4436,82.2032 C77.9356,82.4362 78.3446,82.8082 78.6766,83.3222 L78.0526,83.7312 C77.7696,83.3712 77.4406,83.1062 77.0626,82.9322 C76.6816,82.7572 76.2626,82.6702 75.8016,82.6702 C75.3496,82.6702 74.9446,82.7472 74.5806,82.9072 C74.2186,83.0632 73.9076,83.3012 73.6496,83.6202 C73.3876,83.9402 73.1876,84.3412 73.0456,84.8162 C72.9086,85.2932 72.8376,85.8482 72.8376,86.4762 C72.8376,87.7312 73.1076,88.6792 73.6496,89.3222 C74.1906,89.9682 74.9076,90.2872 75.8016,90.2872 C76.1766,90.2872 76.5216,90.2232 76.8316,90.0972 C77.1426,89.9682 77.4106,89.7952 77.6316,89.5702 C77.8526,89.3502 78.0256,89.0882 78.1486,88.7862 C78.2706,88.4822 78.3316,88.1562 78.3316,87.8082 L78.3316,87.5142 L76.0326,87.5142 L76.0326,86.7352 Z M67.0066,90.8902 L67.8096,90.8902 L67.8096,82.0432 L67.0066,82.0432 L67.0066,90.8902 Z M59.7196,81.9542 C60.2796,81.9542 60.7986,82.0492 61.2726,82.2402 C61.7436,82.4332 62.1216,82.6922 62.4006,83.0152 L61.8006,83.5502 C61.5556,83.2792 61.2566,83.0762 60.9066,82.9442 C60.5556,82.8112 60.1776,82.7472 59.7686,82.7472 C59.5136,82.7472 59.2616,82.7712 59.0146,82.8242 C58.7666,82.8732 58.5506,82.9502 58.3636,83.0522 C58.1756,83.1562 58.0246,83.2892 57.9086,83.4482 C57.7936,83.6112 57.7366,83.8082 57.7366,84.0362 C57.7366,84.2942 57.8096,84.5092 57.9546,84.6872 C58.0986,84.8692 58.2866,85.0262 58.5166,85.1612 C58.7476,85.2992 59.0086,85.4172 59.3006,85.5212 C59.5956,85.6222 59.8976,85.7242 60.2026,85.8252 C60.5096,85.9302 60.8086,86.0342 61.0906,86.1442 C61.3766,86.2562 61.6316,86.3852 61.8536,86.5292 C62.1856,86.7512 62.4586,87.0182 62.6716,87.3352 C62.8836,87.6522 62.9916,88.0632 62.9916,88.5742 C62.9916,89.0352 62.8926,89.4202 62.6966,89.7302 C62.4986,90.0452 62.2446,90.2932 61.9296,90.4802 C61.6136,90.6692 61.2666,90.8012 60.8816,90.8742 C60.4976,90.9512 60.1196,90.9912 59.7446,90.9912 C59.4276,90.9912 59.1076,90.9702 58.7846,90.9272 C58.4616,90.8842 58.1506,90.8192 57.8536,90.7302 C57.5546,90.6412 57.2716,90.5202 57.0066,90.3702 C56.7426,90.2232 56.5116,90.0412 56.3186,89.8292 L56.8666,89.2542 C57.1826,89.5772 57.5936,89.8192 58.1016,89.9802 C58.6096,90.1422 59.1286,90.2232 59.6666,90.2232 C60.4666,90.2232 61.0876,90.0752 61.5286,89.7772 C61.9636,89.4782 62.1856,89.0722 62.1856,88.5622 C62.1856,88.2552 62.1026,87.9902 61.9366,87.7632 C61.7706,87.5382 61.5646,87.3382 61.3156,87.1692 C61.0506,86.9812 60.7836,86.8402 60.5096,86.7412 C60.2396,86.6422 59.9616,86.5542 59.6856,86.4762 C59.4096,86.4032 59.1286,86.3102 58.8426,86.2092 C58.5566,86.1082 58.2676,85.9572 57.9796,85.7642 C57.6906,85.5672 57.4506,85.3332 57.2626,85.0592 C57.0746,84.7862 56.9826,84.4442 56.9826,84.0362 C56.9826,83.7222 57.0466,83.4332 57.1796,83.1752 C57.3116,82.9132 57.4986,82.6952 57.7366,82.5162 C57.9756,82.3392 58.2616,82.2002 58.6006,82.1012 C58.9356,82.0032 59.3076,81.9542 59.7196,81.9542 L59.7196,81.9542 Z M48.3136,82.0432 L52.9546,82.0432 L52.9546,82.8612 L49.1206,82.8612 L49.1206,85.9542 L51.4966,85.9542 L51.4966,86.7612 L49.1206,86.7612 L49.1206,90.1092 L53.0556,90.1092 L53.0556,90.8902 L48.3136,90.8902 L48.3136,82.0432 Z M38.3016,90.0972 L39.7476,90.0972 C40.2576,90.0972 40.7376,90.0052 41.1796,89.8222 C41.6226,89.6392 42.0076,89.3842 42.3366,89.0602 C42.6656,88.7372 42.9236,88.3522 43.1176,87.9102 C43.3076,87.4672 43.4036,86.9842 43.4036,86.4652 C43.4036,85.9202 43.3076,85.4252 43.1176,84.9822 C42.9236,84.5402 42.6656,84.1622 42.3366,83.8462 C42.0076,83.5312 41.6226,83.2892 41.1796,83.1162 C40.7376,82.9472 40.2576,82.8612 39.7476,82.8612 L38.3016,82.8612 L38.3016,90.0972 Z M39.7346,82.0432 C40.3656,82.0432 40.9556,82.1572 41.5056,82.3812 C42.0526,82.6082 42.5336,82.9202 42.9426,83.3162 C43.3516,83.7102 43.6736,84.1752 43.9086,84.7092 C44.1416,85.2412 44.2616,85.8182 44.2616,86.4402 C44.2616,87.0612 44.1416,87.6422 43.9086,88.1832 C43.6736,88.7252 43.3516,89.1982 42.9426,89.5992 C42.5336,89.9982 42.0526,90.3142 41.5056,90.5422 C40.9556,90.7722 40.3656,90.8902 39.7346,90.8902 L37.4846,90.8902 L37.4846,82.0432 L39.7346,82.0432 L39.7346,82.0432 Z M141.1216,58.6362 C139.3136,58.6362 137.8986,59.2672 136.8776,60.5302 C135.8546,61.7912 135.3436,63.7012 135.3436,66.2562 C135.3436,68.7772 135.8636,70.6782 136.9036,71.9572 C137.9426,73.2362 139.3476,73.8762 141.1216,73.8762 C142.8926,73.8762 144.3006,73.2362 145.3396,71.9572 C146.3796,70.6782 146.8996,68.7772 146.8996,66.2562 C146.8996,63.7012 146.3886,61.7912 145.3656,60.5302 C144.3446,59.2672 142.9266,58.6362 141.1216,58.6362 L141.1216,58.6362 Z M141.1216,57.0002 C142.1946,57.0002 143.1876,57.1972 144.1016,57.5872 C145.0106,57.9802 145.7946,58.5682 146.4506,59.3522 C147.1086,60.1362 147.6196,61.1052 147.9856,62.2562 C148.3516,63.4052 148.5356,64.7402 148.5356,66.2562 C148.5356,67.7722 148.3516,69.1062 147.9856,70.2572 C147.6196,71.4062 147.1086,72.3662 146.4506,73.1322 C145.7946,73.9002 145.0106,74.4782 144.1016,74.8722 C143.1876,75.2632 142.1946,75.4592 141.1216,75.4592 C140.0486,75.4592 139.0546,75.2632 138.1416,74.8722 C137.2326,74.4782 136.4476,73.9002 135.7896,73.1322 C135.1336,72.3662 134.6236,71.4062 134.2576,70.2572 C133.8886,69.1062 133.7076,67.7722 133.7076,66.2562 C133.7076,64.7402 133.8886,63.4052 134.2576,62.2562 C134.6236,61.1052 135.1336,60.1362 135.7896,59.3522 C136.4476,58.5682 137.2326,57.9802 138.1416,57.5872 C139.0546,57.1972 140.0486,57.0002 141.1216,57.0002 L141.1216,57.0002 Z M119.0246,66.7662 L125.2596,66.7662 L125.2596,68.7342 C125.2596,69.6232 125.1166,70.4692 124.8276,71.2802 C124.5386,72.0892 124.1106,72.8062 123.5476,73.4272 C122.9856,74.0482 122.2876,74.5432 121.4546,74.9092 C120.6176,75.2752 119.6546,75.4592 118.5636,75.4592 C117.4896,75.4592 116.4876,75.2632 115.5586,74.8722 C114.6306,74.4782 113.8306,73.9002 113.1576,73.1322 C112.4836,72.3662 111.9556,71.4062 111.5706,70.2572 C111.1866,69.1062 110.9956,67.7722 110.9956,66.2562 C110.9956,64.7402 111.1866,63.4052 111.5706,62.2562 C111.9556,61.1052 112.4836,60.1362 113.1576,59.3522 C113.8306,58.5682 114.6306,57.9802 115.5586,57.5872 C116.4876,57.1972 117.4986,57.0002 118.5876,57.0002 C119.7816,57.0002 120.8696,57.2332 121.8476,57.7042 C122.8286,58.1712 123.6526,58.9192 124.3166,59.9392 L123.0626,60.7572 C122.4986,60.0442 121.8406,59.5102 121.0816,59.1622 C120.3226,58.8112 119.4826,58.6362 118.5636,58.6362 C117.6596,58.6362 116.8476,58.7962 116.1216,59.1092 C115.3956,59.4262 114.7746,59.9032 114.2546,60.5422 C113.7356,61.1832 113.3356,61.9782 113.0526,62.9322 C112.7726,63.8852 112.6316,64.9952 112.6316,66.2562 C112.6316,68.7622 113.1726,70.6562 114.2546,71.9442 C115.3366,73.2292 116.7736,73.8762 118.5636,73.8762 C119.3136,73.8762 119.9986,73.7462 120.6206,73.4912 C121.2446,73.2362 121.7766,72.8862 122.2186,72.4422 C122.6626,72.0002 123.0066,71.4752 123.2556,70.8712 C123.5016,70.2662 123.6236,69.6132 123.6236,68.9162 L123.6236,68.3252 L119.0246,68.3252 L119.0246,66.7662 Z M93.2716,57.3842 L102.5516,57.3842 L102.5516,59.0192 L94.8796,59.0192 L94.8796,65.2072 L99.6366,65.2072 L99.6366,66.8182 L94.8796,66.8182 L94.8796,73.5162 L102.7546,73.5162 L102.7546,75.0752 L93.2716,75.0752 L93.2716,57.3842 Z M73.1416,68.8112 C73.1416,69.4782 73.2586,70.1032 73.4986,70.6902 C73.7386,71.2802 74.0646,71.7942 74.4836,72.2362 C74.9016,72.6832 75.3866,73.0302 75.9406,73.2862 C76.4936,73.5412 77.0936,73.6702 77.7426,73.6702 C78.3726,73.6702 78.9656,73.5412 79.5196,73.2862 C80.0736,73.0302 80.5586,72.6832 80.9776,72.2362 C81.3956,71.7942 81.7276,71.2802 81.9736,70.6902 C82.2196,70.1032 82.3456,69.4782 82.3456,68.8112 L82.3456,57.3842 L83.9546,57.3842 L83.9546,68.8112 C83.9546,69.7332 83.7886,70.5892 83.4556,71.3822 C83.1226,72.1752 82.6776,72.8552 82.1156,73.4272 C81.5516,73.9992 80.8906,74.4442 80.1306,74.7702 C79.3746,75.0932 78.5796,75.2562 77.7426,75.2562 C76.8906,75.2562 76.0876,75.0932 75.3396,74.7702 C74.5896,74.4442 73.9316,73.9992 73.3706,73.4272 C72.8066,72.8552 72.3606,72.1752 72.0286,71.3822 C71.6976,70.5892 71.5316,69.7332 71.5316,68.8112 L71.5316,57.3842 L73.1416,57.3842 L73.1416,68.8112 Z M55.8756,65.5152 L60.7836,65.5152 L60.7836,67.1262 L55.8756,67.1262 L55.8756,75.0752 L54.2646,75.0752 L54.2646,57.3842 L63.5446,57.3842 L63.5446,59.0192 L55.8756,59.0192 L55.8756,65.5152 Z M29.5996,72.5712 L29.5996,57.3842 L31.2386,57.3842 L31.2386,75.0752 L29.2436,75.0752 L20.0916,59.8912 L20.0916,75.0752 L18.4806,75.0752 L18.4806,57.3842 L20.4726,57.3842 L29.5996,72.5712 Z M0.2426,57.3842 L9.5226,57.3842 L9.5226,59.0192 L1.8536,59.0192 L1.8536,65.2072 L6.6076,65.2072 L6.6076,66.8182 L1.8536,66.8182 L1.8536,73.5162 L9.7286,73.5162 L9.7286,75.0752 L0.2426,75.0752 L0.2426,57.3842 Z" id="Fill-146"></path>
            <path d="M62.3467,31.9552 C62.6667,31.9552 62.9277,31.6932 62.9277,31.3722 L62.9277,1.7752 L65.2577,1.7752 L65.2027,13.6582 C65.2027,13.9792 65.4637,14.2402 65.7847,14.2402 C66.1017,14.2402 66.3637,13.9812 66.3667,13.6612 L66.4197,1.7752 L68.6417,1.7752 L68.6417,37.9402 L59.4907,37.9402 L59.4907,1.7752 L61.7657,1.7752 L61.7657,31.3722 C61.7657,31.6932 62.0267,31.9552 62.3467,31.9552 M89.8677,7.3482 C90.1887,7.3482 90.4497058,7.0872 90.4497058,6.7662 L90.4497058,1.2602 C90.4497058,0.9382 90.1897,0.6772 89.8697,0.6772 L69.2237,0.6092 L58.9087,0.6092 C58.5877,0.6092 58.3277,0.8712 58.3277,1.1932 L58.3277,38.5212 C58.3277,38.8432 58.5877,39.1042 58.9087,39.1042 L89.8297,39.1042 C90.1497,39.1042 90.4097,38.8452 90.4117,38.5262 L90.4497058,32.8422 C90.4507,32.5202 90.1917,32.2582 89.8677,32.2562 C89.5487,32.2562 89.2887,32.5162 89.2867,32.8342 L89.2527,37.9402 L69.8037,37.9402 L69.8037,20.4392 L81.2637,20.4392 C81.5847,20.4392 81.8457,20.1782 81.8457,19.8562 C81.8457,19.5362 81.5847,19.2752 81.2637,19.2752 L69.8037,19.2752 L69.8037,1.7772 L89.2867,1.8392 L89.2867,6.7662 C89.2867,7.0872 89.5467,7.3482 89.8677,7.3482" id="Fill-148"></path>
        </g>
    </g>
</svg>