<?xml version="1.0" encoding="UTF-8"?>
<svg width="150px" height="92px" viewBox="0 0 150 92" version="1.1" xmlns="http://www.w3.org/2000/svg" xmlns:xlink="http://www.w3.org/1999/xlink">
    <title>Group</title>
    <g id="Page-1" stroke="none" stroke-width="1" fill="none" fill-rule="evenodd">
        <g id="ad" transform="translate(-433.000000, -191.000000)" fill="#1A1919">
            <g id="Group" transform="translate(433.242600, 191.609200)">
                <path d="M107.776,81.345 C108.339,81.345 108.859,81.44 109.333,81.631 C109.802,81.824 110.181,82.083 110.461,82.406 L109.862,82.941 C109.615,82.67 109.317,82.467 108.966,82.335 C108.616,82.202 108.238,82.138 107.829,82.138 C107.573,82.138 107.321,82.162 107.076,82.215 C106.826,82.264 106.611,82.341 106.422,82.443 C106.236,82.547 106.086,82.68 105.968,82.839 C105.854,83.002 105.797,83.199 105.797,83.427 C105.797,83.685 105.87,83.9 106.014,84.078 C106.159,84.26 106.346,84.417 106.577,84.552 C106.808,84.69 107.069,84.808 107.361,84.912 C107.657,85.013 107.958,85.115 108.262,85.216 C108.57,85.321 108.868,85.425 109.151,85.535 C109.437,85.647 109.692,85.776 109.914,85.92 C110.246,86.142 110.516,86.409 110.731,86.726 C110.944,87.043 111.051,87.454 111.051,87.965 C111.051,88.426 110.953,88.811 110.755,89.121 C110.559,89.436 110.304,89.684 109.991,89.871 C109.673,90.06 109.323,90.192 108.942,90.265 C108.557,90.342 108.179,90.382 107.803,90.382 C107.487,90.382 107.168,90.361 106.845,90.318 C106.521,90.275 106.212,90.21 105.913,90.121 C105.615,90.032 105.332,89.911 105.067,89.761 C104.803,89.614 104.572,89.432 104.379,89.22 L104.925,88.645 C105.242,88.968 105.655,89.21 106.162,89.371 C106.67,89.533 107.189,89.614 107.727,89.614 C108.526,89.614 109.147,89.466 109.588,89.168 C110.024,88.869 110.246,88.463 110.246,87.953 C110.246,87.646 110.162,87.381 109.996,87.154 C109.831,86.929 109.622,86.729 109.375,86.56 C109.111,86.372 108.843,86.231 108.57,86.132 C108.298,86.033 108.022,85.945 107.746,85.867 C107.469,85.794 107.189,85.701 106.903,85.6 C106.618,85.499 106.328,85.348 106.039,85.155 C105.75,84.958 105.509,84.724 105.323,84.45 C105.135,84.177 105.043,83.835 105.043,83.427 C105.043,83.113 105.107,82.824 105.24,82.566 C105.372,82.304 105.559,82.086 105.797,81.907 C106.036,81.73 106.321,81.591 106.66,81.492 C106.996,81.394 107.368,81.345 107.776,81.345 L107.776,81.345 Z M97.256,82.061 C96.352,82.061 95.645,82.375 95.135,83.005 C94.621,83.635 94.366,84.592 94.366,85.867 C94.366,87.132 94.628,88.082 95.147,88.718 C95.667,89.359 96.368,89.678 97.256,89.678 C98.142,89.678 98.846,89.359 99.367,88.718 C99.886,88.082 100.144,87.132 100.144,85.867 C100.144,84.592 99.889,83.635 99.379,83.005 C98.865,82.375 98.157,82.061 97.256,82.061 L97.256,82.061 Z M97.256,81.243 C97.792,81.243 98.29,81.338 98.746,81.535 C99.201,81.732 99.594,82.027 99.92,82.418 C100.249,82.812 100.504,83.294 100.688,83.869 C100.87,84.445 100.963,85.112 100.963,85.867 C100.963,86.627 100.87,87.295 100.688,87.869 C100.504,88.446 100.249,88.924 99.92,89.309 C99.594,89.691 99.201,89.983 98.746,90.176 C98.29,90.373 97.792,90.471 97.256,90.471 C96.718,90.471 96.223,90.373 95.765,90.176 C95.31,89.983 94.92,89.691 94.59,89.309 C94.261,88.924 94.006,88.446 93.825,87.869 C93.64,87.295 93.548,86.627 93.548,85.867 C93.548,85.112 93.64,84.445 93.825,83.869 C94.006,83.294 94.261,82.812 94.59,82.418 C94.92,82.027 95.31,81.732 95.765,81.535 C96.223,81.338 96.718,81.243 97.256,81.243 L97.256,81.243 Z M88.576,89.026 L88.576,81.434 L89.394,81.434 L89.394,90.281 L88.394,90.281 L83.819,82.685 L83.819,90.281 L83.013,90.281 L83.013,81.434 L84.009,81.434 L88.576,89.026 Z M75.79,86.126 L78.908,86.126 L78.908,87.11 C78.908,87.553 78.837,87.978 78.693,88.38 C78.545,88.786 78.333,89.143 78.052,89.456 C77.77,89.767 77.423,90.013 77.005,90.198 C76.587,90.379 76.104,90.471 75.559,90.471 C75.024,90.471 74.523,90.373 74.058,90.176 C73.594,89.983 73.192,89.691 72.856,89.309 C72.518,88.924 72.256,88.446 72.063,87.869 C71.873,87.295 71.777,86.627 71.777,85.867 C71.777,85.112 71.873,84.445 72.063,83.869 C72.256,83.294 72.518,82.812 72.856,82.418 C73.192,82.027 73.594,81.732 74.058,81.535 C74.523,81.338 75.028,81.243 75.572,81.243 C76.169,81.243 76.713,81.361 77.201,81.594 C77.693,81.827 78.102,82.199 78.434,82.713 L77.81,83.122 C77.527,82.762 77.198,82.497 76.82,82.323 C76.439,82.148 76.02,82.061 75.559,82.061 C75.107,82.061 74.702,82.138 74.338,82.298 C73.976,82.454 73.665,82.692 73.407,83.011 C73.145,83.331 72.945,83.732 72.803,84.207 C72.666,84.684 72.595,85.239 72.595,85.867 C72.595,87.122 72.865,88.07 73.407,88.713 C73.948,89.359 74.665,89.678 75.559,89.678 C75.934,89.678 76.279,89.614 76.589,89.488 C76.9,89.359 77.168,89.186 77.389,88.961 C77.61,88.741 77.783,88.479 77.906,88.177 C78.028,87.873 78.089,87.547 78.089,87.199 L78.089,86.905 L75.79,86.905 L75.79,86.126 Z M66.764,90.281 L67.567,90.281 L67.567,81.434 L66.764,81.434 L66.764,90.281 Z M59.477,81.345 C60.037,81.345 60.556,81.44 61.03,81.631 C61.501,81.824 61.879,82.083 62.158,82.406 L61.558,82.941 C61.313,82.67 61.014,82.467 60.664,82.335 C60.313,82.202 59.935,82.138 59.526,82.138 C59.271,82.138 59.019,82.162 58.772,82.215 C58.524,82.264 58.308,82.341 58.121,82.443 C57.933,82.547 57.782,82.68 57.666,82.839 C57.551,83.002 57.494,83.199 57.494,83.427 C57.494,83.685 57.567,83.9 57.712,84.078 C57.856,84.26 58.044,84.417 58.274,84.552 C58.505,84.69 58.766,84.808 59.058,84.912 C59.353,85.013 59.655,85.115 59.96,85.216 C60.267,85.321 60.566,85.425 60.848,85.535 C61.134,85.647 61.389,85.776 61.611,85.92 C61.943,86.142 62.216,86.409 62.429,86.726 C62.641,87.043 62.749,87.454 62.749,87.965 C62.749,88.426 62.65,88.811 62.454,89.121 C62.256,89.436 62.002,89.684 61.687,89.871 C61.371,90.06 61.024,90.192 60.639,90.265 C60.255,90.342 59.877,90.382 59.502,90.382 C59.185,90.382 58.865,90.361 58.542,90.318 C58.219,90.275 57.908,90.21 57.611,90.121 C57.312,90.032 57.029,89.911 56.764,89.761 C56.5,89.614 56.269,89.432 56.076,89.22 L56.624,88.645 C56.94,88.968 57.351,89.21 57.859,89.371 C58.367,89.533 58.886,89.614 59.424,89.614 C60.224,89.614 60.845,89.466 61.286,89.168 C61.721,88.869 61.943,88.463 61.943,87.953 C61.943,87.646 61.86,87.381 61.694,87.154 C61.528,86.929 61.322,86.729 61.073,86.56 C60.808,86.372 60.541,86.231 60.267,86.132 C59.997,86.033 59.719,85.945 59.443,85.867 C59.167,85.794 58.886,85.701 58.6,85.6 C58.314,85.499 58.025,85.348 57.737,85.155 C57.448,84.958 57.208,84.724 57.02,84.45 C56.832,84.177 56.74,83.835 56.74,83.427 C56.74,83.113 56.804,82.824 56.937,82.566 C57.069,82.304 57.256,82.086 57.494,81.907 C57.733,81.73 58.019,81.591 58.358,81.492 C58.693,81.394 59.065,81.345 59.477,81.345 L59.477,81.345 Z M48.071,81.434 L52.712,81.434 L52.712,82.252 L48.878,82.252 L48.878,85.345 L51.254,85.345 L51.254,86.152 L48.878,86.152 L48.878,89.5 L52.813,89.5 L52.813,90.281 L48.071,90.281 L48.071,81.434 Z M38.059,89.488 L39.505,89.488 C40.015,89.488 40.495,89.396 40.937,89.213 C41.38,89.03 41.765,88.775 42.094,88.451 C42.423,88.128 42.681,87.743 42.875,87.301 C43.065,86.858 43.161,86.375 43.161,85.856 C43.161,85.311 43.065,84.816 42.875,84.373 C42.681,83.931 42.423,83.553 42.094,83.237 C41.765,82.922 41.38,82.68 40.937,82.507 C40.495,82.338 40.015,82.252 39.505,82.252 L38.059,82.252 L38.059,89.488 Z M39.492,81.434 C40.123,81.434 40.713,81.548 41.263,81.772 C41.81,81.999 42.291,82.311 42.7,82.707 C43.109,83.101 43.431,83.566 43.666,84.1 C43.899,84.632 44.019,85.209 44.019,85.831 C44.019,86.452 43.899,87.033 43.666,87.574 C43.431,88.116 43.109,88.589 42.7,88.99 C42.291,89.389 41.81,89.705 41.263,89.933 C40.713,90.163 40.123,90.281 39.492,90.281 L37.242,90.281 L37.242,81.434 L39.492,81.434 L39.492,81.434 Z M140.879,58.027 C139.071,58.027 137.656,58.658 136.635,59.921 C135.612,61.182 135.101,63.092 135.101,65.647 C135.101,68.168 135.621,70.069 136.661,71.348 C137.7,72.627 139.105,73.267 140.879,73.267 C142.65,73.267 144.058,72.627 145.097,71.348 C146.137,70.069 146.657,68.168 146.657,65.647 C146.657,63.092 146.146,61.182 145.123,59.921 C144.102,58.658 142.684,58.027 140.879,58.027 L140.879,58.027 Z M140.879,56.391 C141.952,56.391 142.945,56.588 143.859,56.978 C144.768,57.371 145.552,57.959 146.208,58.743 C146.866,59.527 147.377,60.496 147.743,61.647 C148.109,62.796 148.293,64.131 148.293,65.647 C148.293,67.163 148.109,68.497 147.743,69.648 C147.377,70.797 146.866,71.757 146.208,72.523 C145.552,73.291 144.768,73.869 143.859,74.263 C142.945,74.654 141.952,74.85 140.879,74.85 C139.806,74.85 138.812,74.654 137.899,74.263 C136.99,73.869 136.205,73.291 135.547,72.523 C134.891,71.757 134.381,70.797 134.015,69.648 C133.646,68.497 133.465,67.163 133.465,65.647 C133.465,64.131 133.646,62.796 134.015,61.647 C134.381,60.496 134.891,59.527 135.547,58.743 C136.205,57.959 136.99,57.371 137.899,56.978 C138.812,56.588 139.806,56.391 140.879,56.391 L140.879,56.391 Z M118.782,66.157 L125.017,66.157 L125.017,68.125 C125.017,69.014 124.874,69.86 124.585,70.671 C124.296,71.48 123.868,72.197 123.305,72.818 C122.743,73.439 122.045,73.934 121.212,74.3 C120.375,74.666 119.412,74.85 118.321,74.85 C117.247,74.85 116.245,74.654 115.316,74.263 C114.388,73.869 113.588,73.291 112.915,72.523 C112.241,71.757 111.713,70.797 111.328,69.648 C110.944,68.497 110.753,67.163 110.753,65.647 C110.753,64.131 110.944,62.796 111.328,61.647 C111.713,60.496 112.241,59.527 112.915,58.743 C113.588,57.959 114.388,57.371 115.316,56.978 C116.245,56.588 117.256,56.391 118.345,56.391 C119.539,56.391 120.627,56.624 121.605,57.095 C122.586,57.562 123.41,58.31 124.074,59.33 L122.82,60.148 C122.256,59.435 121.598,58.901 120.839,58.553 C120.08,58.202 119.24,58.027 118.321,58.027 C117.417,58.027 116.605,58.187 115.879,58.5 C115.153,58.817 114.532,59.294 114.012,59.933 C113.493,60.574 113.093,61.369 112.81,62.323 C112.53,63.276 112.389,64.386 112.389,65.647 C112.389,68.153 112.93,70.047 114.012,71.335 C115.094,72.62 116.531,73.267 118.321,73.267 C119.071,73.267 119.756,73.137 120.378,72.882 C121.002,72.627 121.534,72.277 121.976,71.833 C122.42,71.391 122.764,70.866 123.013,70.262 C123.259,69.657 123.381,69.004 123.381,68.307 L123.381,67.716 L118.782,67.716 L118.782,66.157 Z M93.029,56.775 L102.309,56.775 L102.309,58.41 L94.637,58.41 L94.637,64.598 L99.394,64.598 L99.394,66.209 L94.637,66.209 L94.637,72.907 L102.512,72.907 L102.512,74.466 L93.029,74.466 L93.029,56.775 Z M72.899,68.202 C72.899,68.869 73.016,69.494 73.256,70.081 C73.496,70.671 73.822,71.185 74.241,71.627 C74.659,72.074 75.144,72.421 75.698,72.677 C76.251,72.932 76.851,73.061 77.5,73.061 C78.13,73.061 78.723,72.932 79.277,72.677 C79.831,72.421 80.316,72.074 80.735,71.627 C81.153,71.185 81.485,70.671 81.731,70.081 C81.977,69.494 82.103,68.869 82.103,68.202 L82.103,56.775 L83.712,56.775 L83.712,68.202 C83.712,69.124 83.546,69.98 83.213,70.773 C82.88,71.566 82.435,72.246 81.873,72.818 C81.309,73.39 80.648,73.835 79.888,74.161 C79.132,74.484 78.337,74.647 77.5,74.647 C76.648,74.647 75.845,74.484 75.097,74.161 C74.347,73.835 73.689,73.39 73.128,72.818 C72.564,72.246 72.118,71.566 71.786,70.773 C71.455,69.98 71.289,69.124 71.289,68.202 L71.289,56.775 L72.899,56.775 L72.899,68.202 Z M55.633,64.906 L60.541,64.906 L60.541,66.517 L55.633,66.517 L55.633,74.466 L54.022,74.466 L54.022,56.775 L63.302,56.775 L63.302,58.41 L55.633,58.41 L55.633,64.906 Z M29.357,71.962 L29.357,56.775 L30.996,56.775 L30.996,74.466 L29.001,74.466 L19.849,59.282 L19.849,74.466 L18.238,74.466 L18.238,56.775 L20.23,56.775 L29.357,71.962 Z M2.84217094e-14,56.775 L9.28,56.775 L9.28,58.41 L1.611,58.41 L1.611,64.598 L6.365,64.598 L6.365,66.209 L1.611,66.209 L1.611,72.907 L9.486,72.907 L9.486,74.466 L2.84217094e-14,74.466 L2.84217094e-14,56.775 Z" id="Fill-146"></path>
                <path d="M62.1041,31.346 C62.4241,31.346 62.6851,31.084 62.6851,30.763 L62.6851,1.166 L65.0151,1.166 L64.9601,13.049 C64.9601,13.37 65.2211,13.631 65.5421,13.631 C65.8591,13.631 66.1211,13.372 66.1241,13.052 L66.1771,1.166 L68.3991,1.166 L68.3991,37.331 L59.2481,37.331 L59.2481,1.166 L61.5231,1.166 L61.5231,30.763 C61.5231,31.084 61.7841,31.346 62.1041,31.346 M89.6251,6.739 C89.9461,6.739 90.2071029,6.478 90.2071029,6.157 L90.2071029,0.651 C90.2071029,0.329 89.9471,0.068 89.6271,0.068 L68.9811,0 L58.6661,0 C58.3451,0 58.0851,0.262 58.0851,0.584 L58.0851,37.912 C58.0851,38.234 58.3451,38.495 58.6661,38.495 L89.5871,38.495 C89.9071,38.495 90.1671,38.236 90.1691,37.917 L90.2071029,32.233 C90.2081,31.911 89.9491,31.649 89.6251,31.647 C89.3061,31.647 89.0461,31.907 89.0441,32.225 L89.0101,37.331 L69.5611,37.331 L69.5611,19.83 L81.0211,19.83 C81.3421,19.83 81.6031,19.569 81.6031,19.247 C81.6031,18.927 81.3421,18.666 81.0211,18.666 L69.5611,18.666 L69.5611,1.168 L89.0441,1.23 L89.0441,6.157 C89.0441,6.478 89.3041,6.739 89.6251,6.739" id="Fill-148"></path>
            </g>
        </g>
    </g>
</svg>